{
	"asset":{
		"generator":"Khronos glTF Blender I/O v4.4.56",
		"version":"2.0"
	},
	"scene":0,
	"scenes":[
		{
			"name":"Scene",
			"nodes":[
				55
			]
		}
	],
	"nodes":[
		{
			"name":"Eye.L",
			"rotation":[
				-1.5963506427851826e-07,
				0.7099490761756897,
				0.7042530179023743,
				5.3599677585225436e-08
			],
			"scale":[
				1,
				1.000000238418579,
				1
			],
			"translation":[
				0.03835049271583557,
				0.059651732444763184,
				0.01787508651614189
			]
		},
		{
			"name":"Eye.R",
			"rotation":[
				-1.5963503585680883e-07,
				0.7099490761756897,
				0.7042530179023743,
				5.359967047979808e-08
			],
			"translation":[
				-0.03835050016641617,
				0.059651732444763184,
				0.0178750678896904
			]
		},
		{
			"children":[
				0,
				1
			],
			"name":"Head",
			"rotation":[
				-0.12713931500911713,
				2.3648371438866889e-07,
				-3.581780037902006e-15,
				0.9918848872184753
			],
			"scale":[
				1,
				0.9999999403953552,
				1.0000001192092896
			],
			"translation":[
				6.5503158452884236e-15,
				0.05040416121482849,
				1.6763806343078613e-08
			]
		},
		{
			"children":[
				2
			],
			"name":"Neck",
			"rotation":[
				0.23426099121570587,
				-2.3178425578862516e-07,
				0,
				0.9721737504005432
			],
			"translation":[
				2.55351295663786e-15,
				0.15099363029003143,
				-7.450580596923828e-09
			]
		},
		{
			"name":"MiddleDistal.L",
			"rotation":[
				-0.007403517607599497,
				1.280239825263152e-08,
				1.1915617648128318e-07,
				0.9999725818634033
			],
			"scale":[
				1,
				0.9999999403953552,
				1
			],
			"translation":[
				-3.841705620288849e-09,
				0.018144018948078156,
				-1.895168679766357e-07
			]
		},
		{
			"children":[
				4
			],
			"name":"MiddleIntermediate.L",
			"rotation":[
				0.007397448644042015,
				6.667141133220866e-05,
				0.009022119455039501,
				0.9999319911003113
			],
			"scale":[
				0.9999999403953552,
				0.9999999403953552,
				0.9999999403953552
			],
			"translation":[
				2.561137080192566e-09,
				0.016797583550214767,
				-2.5691406335681677e-08
			]
		},
		{
			"children":[
				5
			],
			"name":"MiddleProximal.L",
			"rotation":[
				4.427171006682329e-06,
				4.180207824333593e-08,
				-0.009022381156682968,
				0.9999593496322632
			],
			"scale":[
				0.9999999403953552,
				0.9999999403953552,
				1
			],
			"translation":[
				0.0033467160537838936,
				0.044866062700748444,
				0.002296390710398555
			]
		},
		{
			"name":"IndexDistal.L",
			"rotation":[
				-0.008008543401956558,
				1.71718106400931e-09,
				2.9958624736536876e-07,
				0.9999679327011108
			],
			"translation":[
				-1.6298145055770874e-09,
				0.016791583970189095,
				-5.126639734953642e-08
			]
		},
		{
			"children":[
				7
			],
			"name":"IndexIntermediate.L",
			"rotation":[
				0.008006518706679344,
				-1.1299560753741389e-07,
				-3.331022071506595e-07,
				0.9999679327011108
			],
			"translation":[
				-2.3283064365386963e-10,
				0.01933109760284424,
				8.532515494152904e-08
			]
		},
		{
			"children":[
				8
			],
			"name":"IndexProximal.L",
			"rotation":[
				3.1652996312914183e-07,
				1.0629446478560567e-07,
				1.2035525287501514e-07,
				1
			],
			"translation":[
				0.014305192045867443,
				0.04111473634839058,
				0.00057331653079018
			]
		},
		{
			"name":"RingDistal.L",
			"rotation":[
				-0.008006047457456589,
				6.945124031432215e-09,
				1.9874188694757322e-07,
				0.9999679923057556
			],
			"scale":[
				1,
				0.9999999403953552,
				0.9999999403953552
			],
			"translation":[
				-1.0477378964424133e-09,
				0.015469527803361416,
				1.2844247976318002e-07
			]
		},
		{
			"children":[
				10
			],
			"name":"RingIntermediate.L",
			"rotation":[
				0.008003568276762962,
				-1.2441923047390446e-07,
				-9.855964577809573e-08,
				0.9999679923057556
			],
			"scale":[
				1,
				1,
				1.0000001192092896
			],
			"translation":[
				2.561137080192566e-09,
				0.017862403765320778,
				-1.819207682274282e-07
			]
		},
		{
			"children":[
				11
			],
			"name":"RingProximal.L",
			"rotation":[
				-7.974442155500583e-07,
				1.0944496153797445e-07,
				1.3042154023423791e-08,
				1
			],
			"scale":[
				1,
				1,
				0.9999999403953552
			],
			"translation":[
				-0.007084991782903671,
				0.04246014356613159,
				-0.0013778253924101591
			]
		},
		{
			"name":"LittleDistal.L",
			"rotation":[
				-0.00944957323372364,
				-6.588674050789223e-09,
				2.0785975607395812e-07,
				0.9999553561210632
			],
			"translation":[
				9.313225746154785e-10,
				0.013096831738948822,
				5.0771632231771946e-08
			]
		},
		{
			"children":[
				13
			],
			"name":"LittleIntermediate.L",
			"rotation":[
				0.009453216567635536,
				-2.8486646375114333e-09,
				-5.386086741054896e-07,
				0.9999552965164185
			],
			"translation":[
				6.6356733441352844e-09,
				0.013933107256889343,
				1.7286220099776983e-07
			]
		},
		{
			"children":[
				14
			],
			"name":"LittleProximal.L",
			"rotation":[
				-1.5345780184361502e-06,
				-4.001776687800884e-09,
				3.341228875797242e-07,
				1
			],
			"translation":[
				-0.017815865576267242,
				0.038553155958652496,
				-0.005134137347340584
			]
		},
		{
			"name":"ThumbDistal.L",
			"rotation":[
				0.06026443466544151,
				-0.0019960070494562387,
				0.01898273080587387,
				0.9979999661445618
			],
			"scale":[
				0.9999999403953552,
				0.9999998211860657,
				1
			],
			"translation":[
				5.727633833885193e-08,
				0.016191229224205017,
				3.3527612686157227e-08
			]
		},
		{
			"children":[
				16
			],
			"name":"ThumbIntermediate.L",
			"rotation":[
				-0.1913234293460846,
				0.020007099956274033,
				-0.0917426347732544,
				0.9770252704620361
			],
			"scale":[
				0.9999998211860657,
				1,
				0.9999998807907104
			],
			"translation":[
				5.098991096019745e-08,
				0.027835391461849213,
				-3.725290298461914e-08
			]
		},
		{
			"children":[
				17
			],
			"name":"ThumbProximal.L",
			"rotation":[
				0.05792314186692238,
				0.615544855594635,
				-0.42151549458503723,
				0.6633808612823486
			],
			"scale":[
				0.9999998807907104,
				0.9999998807907104,
				1
			],
			"translation":[
				0.014699234627187252,
				0.005599723197519779,
				-0.0014118332182988524
			]
		},
		{
			"children":[
				6,
				9,
				12,
				15,
				18
			],
			"name":"Hand.L",
			"rotation":[
				-0.023585522547364235,
				-0.0009664020617492497,
				-0.0015676873736083508,
				0.9997201561927795
			],
			"translation":[
				0.0005756758037023246,
				0.2205374538898468,
				0.002544622402638197
			]
		},
		{
			"children":[
				19
			],
			"name":"LowerArm.L",
			"rotation":[
				0.008079101331532001,
				-1.2951825567597552e-07,
				7.835536663947096e-09,
				0.9999673366546631
			],
			"translation":[
				3.915641144658366e-09,
				0.14158029854297638,
				1.684230177545487e-08
			]
		},
		{
			"children":[
				20
			],
			"name":"UpperArm.L",
			"rotation":[
				0.15713529288768768,
				1.3528952536034922e-07,
				-3.386714553244019e-08,
				0.9875770807266235
			],
			"translation":[
				6.079131864566989e-09,
				0.07193911820650101,
				-4.243335993692199e-08
			]
		},
		{
			"children":[
				21
			],
			"name":"Shoulder.L",
			"rotation":[
				-0.5342568755149841,
				-0.34173569083213806,
				-0.619045078754425,
				0.4632164537906647
			],
			"scale":[
				1.0000001192092896,
				1.0000001192092896,
				1
			],
			"translation":[
				0.0262187197804451,
				0.14494173228740692,
				-0.019130052998661995
			]
		},
		{
			"name":"MiddleDistal.R",
			"rotation":[
				-0.007403518073260784,
				-1.2740550836554121e-08,
				-1.1855770765123452e-07,
				0.9999725818634033
			],
			"scale":[
				1,
				0.9999999403953552,
				1
			],
			"translation":[
				5.820766091346741e-10,
				0.01814403012394905,
				-3.145469236187637e-07
			]
		},
		{
			"children":[
				23
			],
			"name":"MiddleIntermediate.R",
			"rotation":[
				0.007397445384413004,
				-6.667172419838607e-05,
				-0.009022117592394352,
				0.9999319314956665
			],
			"scale":[
				0.9999998807907104,
				0.9999998211860657,
				0.9999998807907104
			],
			"translation":[
				-4.656612873077393e-10,
				0.01679755374789238,
				8.576898835599422e-08
			]
		},
		{
			"children":[
				24
			],
			"name":"MiddleProximal.R",
			"rotation":[
				4.4291514313954394e-06,
				-4.200581926738778e-08,
				0.009022380225360394,
				0.9999592900276184
			],
			"scale":[
				0.9999999403953552,
				0.9999998807907104,
				0.9999999403953552
			],
			"translation":[
				-0.003346716519445181,
				0.04486602544784546,
				0.002296267542988062
			]
		},
		{
			"name":"IndexDistal.R",
			"rotation":[
				-0.008008538745343685,
				-1.8517906097414993e-09,
				-2.9976450832691626e-07,
				0.9999679327011108
			],
			"translation":[
				1.862645149230957e-09,
				0.016791578382253647,
				-1.724838512018323e-07
			]
		},
		{
			"children":[
				26
			],
			"name":"IndexIntermediate.R",
			"rotation":[
				0.008006518706679344,
				1.1289737500419506e-07,
				3.3341325433866587e-07,
				0.9999679327011108
			],
			"translation":[
				0,
				0.019331032410264015,
				-3.782770363613963e-08
			]
		},
		{
			"children":[
				27
			],
			"name":"IndexProximal.R",
			"rotation":[
				3.16614432449569e-07,
				-1.0635631042532623e-07,
				-1.2047166819684207e-07,
				1
			],
			"translation":[
				-0.014305192977190018,
				0.04111473262310028,
				0.0005731971468776464
			]
		},
		{
			"name":"RingDistal.R",
			"rotation":[
				-0.00800604373216629,
				-6.89055301705821e-09,
				-1.9914753579541866e-07,
				0.9999679923057556
			],
			"scale":[
				1,
				0.9999999403953552,
				0.9999999403953552
			],
			"translation":[
				1.6298145055770874e-09,
				0.015469546429812908,
				1.0863004717975855e-08
			]
		},
		{
			"children":[
				29
			],
			"name":"RingIntermediate.R",
			"rotation":[
				0.008003562688827515,
				1.244883520712392e-07,
				9.922359822667204e-08,
				0.9999679923057556
			],
			"scale":[
				1,
				1,
				1.0000001192092896
			],
			"translation":[
				4.540197551250458e-09,
				0.017862441018223763,
				-1.860025804489851e-07
			]
		},
		{
			"children":[
				30
			],
			"name":"RingProximal.R",
			"rotation":[
				-7.936344559311692e-07,
				-1.0951772111411628e-07,
				-1.3089447747915983e-08,
				1
			],
			"scale":[
				1,
				1,
				0.9999999403953552
			],
			"translation":[
				0.007084991317242384,
				0.04246014356613159,
				-0.0013779449509456754
			]
		},
		{
			"name":"LittleDistal.R",
			"rotation":[
				-0.009449571371078491,
				6.712371103390069e-09,
				-2.0808896294965962e-07,
				0.9999553561210632
			],
			"translation":[
				-2.3283064365386963e-10,
				0.013096852228045464,
				5.0495145842432976e-08
			]
		},
		{
			"children":[
				32
			],
			"name":"LittleIntermediate.R",
			"rotation":[
				0.009453214704990387,
				2.77590195274513e-09,
				5.390488695411477e-07,
				0.9999552965164185
			],
			"translation":[
				-6.6356733441352844e-09,
				0.01393316499888897,
				5.321635399013758e-08
			]
		},
		{
			"children":[
				33
			],
			"name":"LittleProximal.R",
			"rotation":[
				-1.5344934354288853e-06,
				3.878085408359766e-09,
				-3.3423202694393694e-07,
				1
			],
			"translation":[
				0.01781586930155754,
				0.038553155958652496,
				-0.00513426074758172
			]
		},
		{
			"name":"ThumbDistal.R",
			"rotation":[
				0.0602644644677639,
				0.001996042672544718,
				-0.018982749432325363,
				0.997999906539917
			],
			"scale":[
				1.0000001192092896,
				0.9999998807907104,
				1
			],
			"translation":[
				5.98374754190445e-08,
				0.016191229224205017,
				1.30385160446167e-08
			]
		},
		{
			"children":[
				35
			],
			"name":"ThumbIntermediate.R",
			"rotation":[
				-0.19132345914840698,
				-0.020007189363241196,
				0.09174265712499619,
				0.9770252704620361
			],
			"scale":[
				0.9999999403953552,
				1.0000001192092896,
				0.9999999403953552
			],
			"translation":[
				-5.052424967288971e-08,
				0.027835329994559288,
				-4.0046870708465576e-08
			]
		},
		{
			"children":[
				36
			],
			"name":"ThumbProximal.R",
			"rotation":[
				0.057923175394535065,
				-0.6155449151992798,
				0.4215155243873596,
				0.6633808612823486
			],
			"scale":[
				0.9999998807907104,
				1,
				0.9999999403953552
			],
			"translation":[
				-0.014699235558509827,
				0.005599725991487503,
				-0.0014119545230641961
			]
		},
		{
			"children":[
				25,
				28,
				31,
				34,
				37
			],
			"name":"Hand.R",
			"rotation":[
				-0.023585518822073936,
				0.000966401887126267,
				0.0015676864422857761,
				0.9997201561927795
			],
			"translation":[
				-0.0005756793543696404,
				0.2205374538898468,
				0.002544622402638197
			]
		},
		{
			"children":[
				38
			],
			"name":"LowerArm.R",
			"rotation":[
				0.008079102262854576,
				1.2951696248819644e-07,
				-7.681398628278657e-09,
				0.9999673962593079
			],
			"scale":[
				1,
				0.9999999403953552,
				0.9999999403953552
			],
			"translation":[
				-3.747475219029184e-09,
				0.141580268740654,
				-1.0246888137999122e-07
			]
		},
		{
			"children":[
				39
			],
			"name":"UpperArm.R",
			"rotation":[
				0.15713530778884888,
				-1.6474737662974803e-07,
				7.550188030336358e-08,
				0.9875770807266235
			],
			"scale":[
				1,
				0.9999998807907104,
				1
			],
			"translation":[
				2.893418837857098e-10,
				0.07193911075592041,
				-3.742178122934092e-08
			]
		},
		{
			"children":[
				40
			],
			"name":"Shoulder.R",
			"rotation":[
				-0.5342571139335632,
				0.3417355716228485,
				0.6190448999404907,
				0.4632166028022766
			],
			"scale":[
				1.0000001192092896,
				1.0000001192092896,
				1
			],
			"translation":[
				-0.026218712329864502,
				0.14494173228740692,
				-0.01913006417453289
			]
		},
		{
			"children":[
				3,
				22,
				41
			],
			"name":"Chest",
			"rotation":[
				-0.10475374013185501,
				1.1835830093787081e-07,
				-1.0635171854289638e-08,
				0.9944981932640076
			],
			"scale":[
				1,
				1.0000001192092896,
				1.0000001192092896
			],
			"translation":[
				3.885785350748376e-16,
				0.07148802280426025,
				8.881784197001252e-16
			]
		},
		{
			"children":[
				42
			],
			"name":"Spine",
			"rotation":[
				1.0080948698032444e-07,
				-2.356736246156288e-07,
				0.017818938940763474,
				0.9998412132263184
			],
			"translation":[
				2.3268278970256517e-10,
				0.10742241144180298,
				1.1056313119576502e-16
			]
		},
		{
			"name":"Toes.L",
			"rotation":[
				0.04978246986865997,
				0.9399934411048889,
				-0.33668434619903564,
				0.02403581514954567
			],
			"scale":[
				1,
				0.9999997019767761,
				0.9999999403953552
			],
			"translation":[
				3.725290298461914e-09,
				0.12952786684036255,
				0
			]
		},
		{
			"children":[
				44
			],
			"name":"Foot.L",
			"rotation":[
				-0.22456784546375275,
				0.06870146840810776,
				0.06576237827539444,
				0.9698065519332886
			],
			"translation":[
				8.944653018261306e-09,
				0.33159831166267395,
				1.5570549294352531e-09
			]
		},
		{
			"children":[
				45
			],
			"name":"LowerLeg.L",
			"rotation":[
				0.010726748034358025,
				-0.0004725034232251346,
				-0.010328237898647785,
				0.9998890161514282
			],
			"scale":[
				1,
				0.9999999403953552,
				1.0000001192092896
			],
			"translation":[
				-1.7087047332609018e-09,
				0.3719235062599182,
				-5.440597306005657e-09
			]
		},
		{
			"children":[
				46
			],
			"name":"UpperLeg.L",
			"rotation":[
				-0.9995768070220947,
				-0.023535318672657013,
				0.00040131615241989493,
				0.017091747373342514
			],
			"scale":[
				1.0000020265579224,
				1.000000238418579,
				1.000001072883606
			],
			"translation":[
				0.06715044379234314,
				-0.013386589474976063,
				3.236129231254381e-08
			]
		},
		{
			"name":"Toes.R",
			"rotation":[
				0.04978339374065399,
				-0.9399933815002441,
				0.33668434619903564,
				0.024036042392253876
			],
			"scale":[
				1,
				0.9999997019767761,
				1
			],
			"translation":[
				-2.3283064365386963e-10,
				0.12952786684036255,
				-2.7939677238464355e-09
			]
		},
		{
			"children":[
				48
			],
			"name":"Foot.R",
			"rotation":[
				-0.22456781566143036,
				-0.06870128959417343,
				-0.06576180458068848,
				0.9698066115379333
			],
			"scale":[
				0.9999999403953552,
				0.9999998807907104,
				0.9999999403953552
			],
			"translation":[
				4.129873332203715e-09,
				0.3315983712673187,
				2.546585164964199e-09
			]
		},
		{
			"children":[
				49
			],
			"name":"LowerLeg.R",
			"rotation":[
				0.010726742446422577,
				0.0004725134640466422,
				0.010328213684260845,
				0.9998890161514282
			],
			"scale":[
				1,
				0.9999998211860657,
				1.0000001192092896
			],
			"translation":[
				1.008630690080281e-08,
				0.371923565864563,
				-2.346496330574155e-10
			]
		},
		{
			"children":[
				50
			],
			"name":"UpperLeg.R",
			"rotation":[
				-0.9997806549072266,
				-0.012096811085939407,
				0.0002082817954942584,
				0.017095224931836128
			],
			"scale":[
				1.0000003576278687,
				1,
				1.0000005960464478
			],
			"translation":[
				-0.0583760067820549,
				-0.017862217500805855,
				-2.7284698944640695e-08
			]
		},
		{
			"children":[
				43,
				47,
				51
			],
			"name":"Hips",
			"rotation":[
				-4.206777859394606e-08,
				2.367205098607883e-07,
				-0.017818942666053772,
				0.9998412132263184
			],
			"translation":[
				-0.003827700624242425,
				0.8681511878967285,
				9.942849210631266e-09
			]
		},
		{
			"children":[
				52
			],
			"name":"Root",
			"rotation":[
				-2.980232594040899e-08,
				0,
				0,
				1
			],
			"scale":[
				1,
				0.9999999403953552,
				0.9999999403953552
			]
		},
		{
			"mesh":0,
			"name":"Body",
			"skin":0
		},
		{
			"children":[
				54,
				53
			],
			"name":"\u30a2\u30fc\u30de\u30c1\u30e5\u30a2.001"
		}
	],
	"meshes":[
		{
			"name":"\u7acb\u65b9\u4f53.002",
			"primitives":[
				{
					"attributes":{
						"POSITION":0,
						"NORMAL":1,
						"TEXCOORD_0":2,
						"JOINTS_0":3,
						"WEIGHTS_0":4
					},
					"indices":5
				}
			]
		}
	],
	"skins":[
		{
			"inverseBindMatrices":6,
			"joints":[
				53,
				52,
				43,
				42,
				3,
				2,
				0,
				1,
				22,
				21,
				20,
				19,
				6,
				5,
				4,
				9,
				8,
				7,
				12,
				11,
				10,
				15,
				14,
				13,
				18,
				17,
				16,
				41,
				40,
				39,
				38,
				25,
				24,
				23,
				28,
				27,
				26,
				31,
				30,
				29,
				34,
				33,
				32,
				37,
				36,
				35,
				47,
				46,
				45,
				44,
				51,
				50,
				49,
				48
			],
			"name":"\u30a2\u30fc\u30de\u30c1\u30e5\u30a2.001"
		}
	],
	"accessors":[
		{
			"bufferView":0,
			"componentType":5126,
			"count":6139,
			"max":[
				0.5497792959213257,
				1.4365954399108887,
				0.06551012396812439
			],
			"min":[
				-0.5497792959213257,
				0.0097198486328125,
				-0.12150081247091293
			],
			"type":"VEC3"
		},
		{
			"bufferView":1,
			"componentType":5126,
			"count":6139,
			"type":"VEC3"
		},
		{
			"bufferView":2,
			"componentType":5126,
			"count":6139,
			"type":"VEC2"
		},
		{
			"bufferView":3,
			"componentType":5121,
			"count":6139,
			"type":"VEC4"
		},
		{
			"bufferView":4,
			"componentType":5126,
			"count":6139,
			"type":"VEC4"
		},
		{
			"bufferView":5,
			"componentType":5123,
			"count":22950,
			"type":"SCALAR"
		},
		{
			"bufferView":6,
			"componentType":5126,
			"count":54,
			"type":"MAT4"
		}
	],
	"bufferViews":[
		{
			"buffer":0,
			"byteLength":73668,
			"byteOffset":0,
			"target":34962
		},
		{
			"buffer":0,
			"byteLength":73668,
			"byteOffset":73668,
			"target":34962
		},
		{
			"buffer":0,
			"byteLength":49112,
			"byteOffset":147336,
			"target":34962
		},
		{
			"buffer":0,
			"byteLength":24556,
			"byteOffset":196448,
			"target":34962
		},
		{
			"buffer":0,
			"byteLength":98224,
			"byteOffset":221004,
			"target":34962
		},
		{
			"buffer":0,
			"byteLength":45900,
			"byteOffset":319228,
			"target":34963
		},
		{
			"buffer":0,
			"byteLength":3456,
			"byteOffset":365128
		}
	],
	"buffers":[
		{
			"byteLength":368584,
			"uri":"Naira_ExportTest.bin"
		}
	]
}
