# Blender 4.4.1
# www.blender.org
mtllib Map.mtl
o Cube
v 29.824038 -5.552856 -29.824038
v 29.824038 -5.552856 29.824038
v -29.824038 -5.552856 -29.824038
v -29.824038 -5.552856 29.824038
v 29.824038 -0.000583 -29.824038
v 29.824038 -0.000583 29.824038
v -29.824038 -0.000583 -29.824038
v -29.824038 -0.000583 29.824038
v 27.410877 0.011353 27.618576
v 27.410877 2.011354 27.618576
v 27.410877 0.011353 -27.618576
v 27.410877 2.011354 -27.618576
v 29.410877 0.011353 27.618576
v 29.410877 2.011354 27.618576
v 29.410877 0.011353 -27.618576
v 29.410877 2.011354 -27.618576
v -0.000001 2.278795 32.190311
v 0.612707 4.682538 38.053799
v 1.201869 3.766444 35.091885
v 1.744843 2.278795 32.362167
v 2.220764 0.276759 29.969549
v 1.201868 4.682538 38.232521
v 2.357551 3.766444 35.442455
v 3.422633 2.278795 32.871120
v 4.356186 0.276759 30.617325
v 1.744843 4.682538 38.522747
v 3.422633 3.766444 36.011753
v 4.968893 2.278795 33.697613
v 6.324201 0.276759 31.669250
v 2.220764 4.682538 38.913326
v 4.356186 3.766444 36.777905
v 6.324201 2.278795 34.809887
v 8.049182 0.276759 33.084904
v 2.611342 4.682538 39.389244
v 5.122333 3.766444 37.711456
v 7.436473 2.278795 36.165195
v 9.464837 0.276759 34.809887
v -0.000001 4.991867 41.134087
v 2.901567 4.682538 39.932217
v 5.691630 3.766444 38.776539
v 8.262966 2.278795 37.711456
v 10.516763 0.276759 36.777901
v 3.080287 4.682538 40.521381
v 6.042202 3.766444 39.932217
v 8.771919 2.278795 39.389244
v 11.164536 0.276759 38.913326
v 3.140634 4.682538 41.134087
v 6.160576 3.766444 41.134087
v 8.943771 2.278795 41.134087
v 11.383262 0.276759 41.134087
v 3.080287 4.682538 41.746792
v 6.042202 3.766444 42.335957
v 8.771917 2.278795 42.878929
v 11.164535 0.276759 43.354851
v 2.901567 4.682538 42.335957
v 5.691630 3.766444 43.491638
v 8.262964 2.278795 44.556721
v 10.516762 0.276759 45.490276
v 2.611341 4.682538 42.878929
v 5.122332 3.766444 44.556721
v 7.436471 2.278795 46.102982
v 9.464836 0.276759 47.458286
v 2.220763 4.682538 43.354851
v 4.356184 3.766444 45.490276
v 6.324198 2.278795 47.458286
v 8.049181 0.276759 49.183270
v 1.744842 4.682538 43.745430
v 3.422632 3.766444 46.256420
v 4.968890 2.278795 48.570560
v 6.324200 0.276759 50.598923
v 1.201868 4.682538 44.035656
v 2.357549 3.766444 46.825718
v 3.422630 2.278795 49.397049
v 4.356185 0.276759 51.650848
v 0.612706 4.682538 44.214371
v 1.201867 3.766444 47.176292
v 1.744841 2.278795 49.906002
v 2.220763 0.276759 52.298622
v -0.000001 4.682538 44.274719
v -0.000002 3.766444 47.294666
v -0.000002 2.278795 50.077854
v -0.000001 0.276759 52.517349
v -0.612708 4.682538 44.214371
v -1.201870 3.766444 47.176292
v -1.744845 2.278795 49.906002
v -2.220765 0.276759 52.298622
v -1.201869 4.682538 44.035656
v -2.357552 3.766444 46.825718
v -3.422634 2.278795 49.397049
v -4.356186 0.276759 51.650848
v -1.744843 4.682538 43.745430
v -3.422634 3.766444 46.256416
v -4.968893 2.278795 48.570557
v -6.324202 0.276759 50.598919
v -2.220764 4.682538 43.354851
v -4.356186 3.766444 45.490273
v -6.324200 2.278795 47.458282
v -8.049182 0.276759 49.183270
v -2.611341 4.682538 42.878929
v -5.122333 3.766444 44.556721
v -7.436472 2.278795 46.102978
v -9.464836 0.276759 47.458286
v -2.901567 4.682538 42.335957
v -5.691631 3.766444 43.491638
v -8.262963 2.278795 44.556717
v -10.516762 0.276759 45.490273
v -3.080287 4.682538 41.746792
v -6.042202 3.766444 42.335957
v -8.771914 2.278795 42.878925
v -11.164536 0.276759 43.354851
v -3.140633 4.682538 41.134087
v -6.160576 3.766444 41.134087
v -8.943767 2.278795 41.134083
v -11.383262 0.276759 41.134087
v -3.080287 4.682538 40.521381
v -6.042202 3.766444 39.932217
v -8.771914 2.278795 39.389244
v -11.164535 0.276759 38.913326
v -2.901567 4.682538 39.932220
v -5.691630 3.766444 38.776539
v -8.262959 2.278795 37.711456
v -10.516761 0.276759 36.777905
v -2.611341 4.682538 39.389244
v -5.122331 3.766444 37.711456
v -7.436467 2.278795 36.165195
v -9.464835 0.276759 34.809887
v -2.220763 4.682538 38.913326
v -4.356184 3.766444 36.777905
v -6.324194 2.278795 34.809891
v -8.049181 0.276759 33.084904
v -1.744842 4.682538 38.522747
v -3.422632 3.766444 36.011757
v -4.968887 2.278795 33.697617
v -6.324200 0.276759 31.669254
v -1.201868 4.682538 38.232525
v -2.357550 3.766444 35.442455
v -3.422627 2.278795 32.871128
v -4.356185 0.276759 30.617325
v -0.612707 4.682538 38.053802
v -1.201868 3.766444 35.091885
v -1.744839 2.278795 32.362175
v -2.220763 0.276759 29.969553
v -0.000000 4.682538 37.993454
v 0.000000 3.766444 34.973511
v 0.000001 0.276759 29.750826
vn -0.0000 -1.0000 -0.0000
vn -0.0000 1.0000 -0.0000
vn -1.0000 -0.0000 -0.0000
vn -0.0000 -0.0000 1.0000
vn -0.0000 -0.0000 -1.0000
vn 1.0000 -0.0000 -0.0000
vn 0.0097 0.9951 -0.0980
vn 0.0286 0.9565 -0.2902
vn 0.0464 0.8810 -0.4709
vn 0.0624 0.7715 -0.6332
vn 0.0286 0.9951 -0.0942
vn 0.0846 0.9565 -0.2790
vn 0.1374 0.8810 -0.4528
vn 0.1847 0.7715 -0.6088
vn 0.1374 0.9565 -0.2571
vn 0.2231 0.8810 -0.4173
vn 0.2999 0.7715 -0.5611
vn 0.0464 0.9951 -0.0869
vn 0.0625 0.9951 -0.0761
vn 0.1850 0.9565 -0.2254
vn 0.3002 0.8810 -0.3658
vn 0.4036 0.7715 -0.4918
vn 0.2254 0.9565 -0.1850
vn 0.3658 0.8810 -0.3002
vn 0.4918 0.7715 -0.4036
vn 0.0761 0.9951 -0.0625
vn 0.0869 0.9951 -0.0464
vn 0.2571 0.9565 -0.1374
vn 0.4173 0.8810 -0.2231
vn 0.5611 0.7715 -0.2999
vn 0.4528 0.8810 -0.1374
vn 0.6088 0.7715 -0.1847
vn 0.0942 0.9951 -0.0286
vn 0.2790 0.9565 -0.0846
vn 0.0980 0.9951 -0.0097
vn 0.2902 0.9565 -0.0286
vn 0.4709 0.8810 -0.0464
vn 0.6332 0.7715 -0.0624
vn 0.4709 0.8810 0.0464
vn 0.6332 0.7715 0.0624
vn 0.0980 0.9951 0.0097
vn 0.2902 0.9565 0.0286
vn 0.0942 0.9951 0.0286
vn 0.2790 0.9565 0.0846
vn 0.4528 0.8810 0.1374
vn 0.6088 0.7715 0.1847
vn 0.5611 0.7715 0.2999
vn 0.0869 0.9951 0.0464
vn 0.2571 0.9565 0.1374
vn 0.4173 0.8810 0.2230
vn 0.0761 0.9951 0.0625
vn 0.2254 0.9565 0.1850
vn 0.3658 0.8810 0.3002
vn 0.4918 0.7715 0.4036
vn 0.0625 0.9951 0.0761
vn 0.1850 0.9565 0.2254
vn 0.3002 0.8810 0.3658
vn 0.4036 0.7715 0.4918
vn 0.0464 0.9951 0.0869
vn 0.1374 0.9565 0.2571
vn 0.2231 0.8810 0.4173
vn 0.2999 0.7715 0.5611
vn 0.0286 0.9951 0.0942
vn 0.0846 0.9565 0.2790
vn 0.1374 0.8810 0.4528
vn 0.1847 0.7715 0.6088
vn 0.0286 0.9565 0.2902
vn 0.0464 0.8810 0.4709
vn 0.0624 0.7715 0.6332
vn 0.0097 0.9951 0.0980
vn -0.0097 0.9951 0.0980
vn -0.0286 0.9565 0.2902
vn -0.0464 0.8810 0.4709
vn -0.0624 0.7715 0.6332
vn -0.0846 0.9565 0.2790
vn -0.1374 0.8810 0.4528
vn -0.1847 0.7715 0.6088
vn -0.0286 0.9951 0.0942
vn -0.0464 0.9951 0.0869
vn -0.1374 0.9565 0.2571
vn -0.2231 0.8810 0.4173
vn -0.2999 0.7715 0.5611
vn -0.3002 0.8810 0.3658
vn -0.4036 0.7715 0.4918
vn -0.0625 0.9951 0.0761
vn -0.1850 0.9565 0.2254
vn -0.0761 0.9951 0.0625
vn -0.2254 0.9565 0.1850
vn -0.3658 0.8810 0.3002
vn -0.4918 0.7715 0.4036
vn -0.5611 0.7715 0.2999
vn -0.0869 0.9951 0.0464
vn -0.2571 0.9565 0.1374
vn -0.4173 0.8810 0.2231
vn -0.0942 0.9951 0.0286
vn -0.2790 0.9565 0.0846
vn -0.4528 0.8810 0.1374
vn -0.6088 0.7715 0.1847
vn -0.6332 0.7715 0.0624
vn -0.0980 0.9951 0.0097
vn -0.2902 0.9565 0.0286
vn -0.4709 0.8810 0.0464
vn -0.0980 0.9951 -0.0097
vn -0.2902 0.9565 -0.0286
vn -0.4709 0.8810 -0.0464
vn -0.6332 0.7715 -0.0624
vn -0.0942 0.9951 -0.0286
vn -0.2790 0.9565 -0.0846
vn -0.4528 0.8810 -0.1374
vn -0.6088 0.7715 -0.1847
vn -0.0869 0.9951 -0.0464
vn -0.2571 0.9565 -0.1374
vn -0.4173 0.8810 -0.2231
vn -0.5611 0.7715 -0.2999
vn -0.0761 0.9951 -0.0625
vn -0.2254 0.9565 -0.1850
vn -0.3658 0.8810 -0.3002
vn -0.4918 0.7715 -0.4036
vn -0.1850 0.9565 -0.2254
vn -0.3002 0.8810 -0.3658
vn -0.4036 0.7715 -0.4918
vn -0.0625 0.9951 -0.0761
vn -0.0464 0.9951 -0.0869
vn -0.1374 0.9565 -0.2571
vn -0.2230 0.8810 -0.4173
vn -0.2999 0.7715 -0.5611
vn -0.1374 0.8810 -0.4528
vn -0.1847 0.7715 -0.6088
vn -0.0286 0.9951 -0.0942
vn -0.0846 0.9565 -0.2790
vn -0.0097 0.9951 -0.0980
vn -0.0286 0.9565 -0.2902
vn -0.0464 0.8810 -0.4709
vn -0.0624 0.7715 -0.6332
vn 0.2230 0.8810 -0.4173
vn 0.4173 0.8810 -0.2230
vn 0.4173 0.8810 0.2231
vn 0.2230 0.8810 0.4173
vn -0.4173 0.8810 0.2230
vn -0.2231 0.8810 -0.4173
vt 0.875000 0.500000
vt 0.625000 0.500000
vt 0.625000 0.750000
vt 0.875000 0.750000
vt 0.625000 0.000000
vt 0.375000 0.250000
vt 0.375000 0.000000
vt 0.625000 0.250000
vt 0.375000 0.500000
vt 0.375000 0.750000
vt 0.375000 1.000000
vt 0.125000 0.750000
vt 0.125000 0.500000
vt 0.625000 1.000000
vt 0.750000 0.937500
vt 0.734375 1.000000
vt 0.718750 0.937500
vt 0.718750 0.875000
vt 0.750000 0.875000
vt 0.718750 0.812500
vt 0.750000 0.812500
vt 0.718750 0.750000
vt 0.750000 0.750000
vt 0.703125 1.000000
vt 0.687500 0.937500
vt 0.687500 0.875000
vt 0.687500 0.812500
vt 0.687500 0.750000
vt 0.656250 0.875000
vt 0.656250 0.812500
vt 0.656250 0.750000
vt 0.671875 1.000000
vt 0.656250 0.937500
vt 0.640625 1.000000
vt 0.625000 0.937500
vt 0.625000 0.875000
vt 0.625000 0.812500
vt 0.593750 0.875000
vt 0.593750 0.812500
vt 0.593750 0.750000
vt 0.609375 1.000000
vt 0.593750 0.937500
vt 0.578125 1.000000
vt 0.562500 0.937500
vt 0.562500 0.875000
vt 0.562500 0.812500
vt 0.562500 0.750000
vt 0.531250 0.812500
vt 0.531250 0.750000
vt 0.546875 1.000000
vt 0.531250 0.937500
vt 0.531250 0.875000
vt 0.515625 1.000000
vt 0.500000 0.937500
vt 0.500000 0.875000
vt 0.500000 0.812500
vt 0.500000 0.750000
vt 0.468750 0.812500
vt 0.468750 0.750000
vt 0.484375 1.000000
vt 0.468750 0.937500
vt 0.468750 0.875000
vt 0.453125 1.000000
vt 0.437500 0.937500
vt 0.437500 0.875000
vt 0.437500 0.812500
vt 0.437500 0.750000
vt 0.406250 0.750000
vt 0.421875 1.000000
vt 0.406250 0.937500
vt 0.406250 0.875000
vt 0.406250 0.812500
vt 0.390625 1.000000
vt 0.375000 0.937500
vt 0.375000 0.875000
vt 0.375000 0.812500
vt 0.375000 0.750000
vt 0.359375 1.000000
vt 0.343750 0.937500
vt 0.343750 0.875000
vt 0.343750 0.812500
vt 0.343750 0.750000
vt 0.328125 1.000000
vt 0.312500 0.937500
vt 0.312500 0.875000
vt 0.312500 0.812500
vt 0.312500 0.750000
vt 0.296875 1.000000
vt 0.281250 0.937500
vt 0.281250 0.875000
vt 0.281250 0.812500
vt 0.281250 0.750000
vt 0.250000 0.875000
vt 0.250000 0.812500
vt 0.250000 0.750000
vt 0.265625 1.000000
vt 0.250000 0.937500
vt 0.234375 1.000000
vt 0.218750 0.937500
vt 0.218750 0.875000
vt 0.218750 0.812500
vt 0.218750 0.750000
vt 0.187500 0.875000
vt 0.187500 0.812500
vt 0.187500 0.750000
vt 0.203125 1.000000
vt 0.187500 0.937500
vt 0.171875 1.000000
vt 0.156250 0.937500
vt 0.156250 0.875000
vt 0.156250 0.812500
vt 0.156250 0.750000
vt 0.125000 0.812500
vt 0.125000 0.750000
vt 0.140625 1.000000
vt 0.125000 0.937500
vt 0.125000 0.875000
vt 0.109375 1.000000
vt 0.093750 0.937500
vt 0.093750 0.875000
vt 0.093750 0.812500
vt 0.093750 0.750000
vt 0.062500 0.750000
vt 0.078125 1.000000
vt 0.062500 0.937500
vt 0.062500 0.875000
vt 0.062500 0.812500
vt 0.046875 1.000000
vt 0.031250 0.937500
vt 0.031250 0.875000
vt 0.031250 0.812500
vt 0.031250 0.750000
vt 0.000000 0.750000
vt 0.015625 1.000000
vt 0.000000 0.937500
vt 0.000000 0.875000
vt 0.000000 0.812500
vt 1.000000 0.937500
vt 0.984375 1.000000
vt 0.968750 0.937500
vt 0.968750 0.875000
vt 1.000000 0.875000
vt 0.968750 0.812500
vt 1.000000 0.812500
vt 0.968750 0.750000
vt 1.000000 0.750000
vt 0.953125 1.000000
vt 0.937500 0.937500
vt 0.937500 0.875000
vt 0.937500 0.812500
vt 0.937500 0.750000
vt 0.921875 1.000000
vt 0.906250 0.937500
vt 0.906250 0.875000
vt 0.906250 0.812500
vt 0.906250 0.750000
vt 0.890625 1.000000
vt 0.875000 0.937500
vt 0.875000 0.875000
vt 0.875000 0.812500
vt 0.875000 0.750000
vt 0.843750 0.875000
vt 0.843750 0.812500
vt 0.843750 0.750000
vt 0.859375 1.000000
vt 0.843750 0.937500
vt 0.828125 1.000000
vt 0.812500 0.937500
vt 0.812500 0.875000
vt 0.812500 0.812500
vt 0.812500 0.750000
vt 0.781250 0.812500
vt 0.781250 0.750000
vt 0.796875 1.000000
vt 0.781250 0.937500
vt 0.781250 0.875000
vt 0.765625 1.000000
s 0
usemtl Material
f 3/1/1 1/2/1 2/3/1
f 3/1/1 2/3/1 4/4/1
f 7/1/2 6/3/2 5/2/2
f 7/1/2 8/4/2 6/3/2
f 4/4/3 7/1/3 3/1/3
f 2/3/4 8/4/4 4/4/4
f 3/1/5 5/2/5 1/2/5
f 1/2/6 6/3/6 2/3/6
f 4/4/3 8/4/3 7/1/3
f 2/3/4 6/3/4 8/4/4
f 3/1/5 7/1/5 5/2/5
f 1/2/6 5/2/6 6/3/6
f 10/5/3 11/6/3 9/7/3
f 12/8/5 15/9/5 11/6/5
f 16/2/6 13/10/6 15/9/6
f 14/3/4 9/11/4 13/10/4
f 15/9/1 9/12/1 11/13/1
f 12/1/2 14/3/2 16/2/2
f 10/5/3 12/8/3 11/6/3
f 12/8/5 16/2/5 15/9/5
f 16/2/6 14/3/6 13/10/6
f 14/3/4 10/14/4 9/11/4
f 15/9/1 13/10/1 9/12/1
f 12/1/2 10/4/2 14/3/2
f 143/15/7 38/16/7 18/17/7
f 143/15/8 19/18/8 144/19/8
f 144/19/9 20/20/9 17/21/9
f 17/21/10 21/22/10 145/23/10
f 18/17/11 38/24/11 22/25/11
f 18/17/12 23/26/12 19/18/12
f 19/18/13 24/27/13 20/20/13
f 20/20/14 25/28/14 21/22/14
f 22/25/15 27/29/15 23/26/15
f 23/26/16 28/30/16 24/27/16
f 24/27/17 29/31/17 25/28/17
f 22/25/18 38/32/18 26/33/18
f 26/33/19 38/34/19 30/35/19
f 26/33/20 31/36/20 27/29/20
f 27/29/21 32/37/21 28/30/21
f 28/30/22 33/3/22 29/31/22
f 30/35/23 35/38/23 31/36/23
f 31/36/24 36/39/24 32/37/24
f 32/37/25 37/40/25 33/3/25
f 30/35/26 38/41/26 34/42/26
f 34/42/27 38/43/27 39/44/27
f 34/42/28 40/45/28 35/38/28
f 35/38/29 41/46/29 36/39/29
f 36/39/30 42/47/30 37/40/30
f 40/45/31 45/48/31 41/46/31
f 41/46/32 46/49/32 42/47/32
f 39/44/33 38/50/33 43/51/33
f 39/44/34 44/52/34 40/45/34
f 43/51/35 38/53/35 47/54/35
f 43/51/36 48/55/36 44/52/36
f 44/52/37 49/56/37 45/48/37
f 45/48/38 50/57/38 46/49/38
f 48/55/39 53/58/39 49/56/39
f 49/56/40 54/59/40 50/57/40
f 47/54/41 38/60/41 51/61/41
f 47/54/42 52/62/42 48/55/42
f 51/61/43 38/63/43 55/64/43
f 51/61/44 56/65/44 52/62/44
f 52/62/45 57/66/45 53/58/45
f 53/58/46 58/67/46 54/59/46
f 57/66/47 62/68/47 58/67/47
f 55/64/48 38/69/48 59/70/48
f 55/64/49 60/71/49 56/65/49
f 56/65/50 61/72/50 57/66/50
f 59/70/51 38/73/51 63/74/51
f 59/70/52 64/75/52 60/71/52
f 60/71/53 65/76/53 61/72/53
f 61/72/54 66/77/54 62/68/54
f 63/74/55 38/78/55 67/79/55
f 63/74/56 68/80/56 64/75/56
f 64/75/57 69/81/57 65/76/57
f 65/76/58 70/82/58 66/77/58
f 67/79/59 38/83/59 71/84/59
f 67/79/60 72/85/60 68/80/60
f 68/80/61 73/86/61 69/81/61
f 69/81/62 74/87/62 70/82/62
f 71/84/63 38/88/63 75/89/63
f 71/84/64 76/90/64 72/85/64
f 72/85/65 77/91/65 73/86/65
f 73/86/66 78/92/66 74/87/66
f 75/89/67 80/93/67 76/90/67
f 76/90/68 81/94/68 77/91/68
f 77/91/69 82/95/69 78/92/69
f 75/89/70 38/96/70 79/97/70
f 79/97/71 38/98/71 83/99/71
f 79/97/72 84/100/72 80/93/72
f 80/93/73 85/101/73 81/94/73
f 81/94/74 86/102/74 82/95/74
f 83/99/75 88/103/75 84/100/75
f 84/100/76 89/104/76 85/101/76
f 85/101/77 90/105/77 86/102/77
f 83/99/78 38/106/78 87/107/78
f 87/107/79 38/108/79 91/109/79
f 87/107/80 92/110/80 88/103/80
f 88/103/81 93/111/81 89/104/81
f 89/104/82 94/112/82 90/105/82
f 92/110/83 97/113/83 93/111/83
f 93/111/84 98/114/84 94/112/84
f 91/109/85 38/115/85 95/116/85
f 91/109/86 96/117/86 92/110/86
f 95/116/87 38/118/87 99/119/87
f 95/116/88 100/120/88 96/117/88
f 96/117/89 101/121/89 97/113/89
f 97/113/90 102/122/90 98/114/90
f 101/121/91 106/123/91 102/122/91
f 99/119/92 38/124/92 103/125/92
f 99/119/93 104/126/93 100/120/93
f 100/120/94 105/127/94 101/121/94
f 103/125/95 38/128/95 107/129/95
f 103/125/96 108/130/96 104/126/96
f 104/126/97 109/131/97 105/127/97
f 105/127/98 110/132/98 106/123/98
f 109/131/99 114/133/99 110/132/99
f 107/129/100 38/134/100 111/135/100
f 107/129/101 112/136/101 108/130/101
f 108/130/102 113/137/102 109/131/102
f 111/138/103 38/139/103 115/140/103
f 111/138/104 116/141/104 112/142/104
f 112/142/105 117/143/105 113/144/105
f 113/144/106 118/145/106 114/146/106
f 115/140/107 38/147/107 119/148/107
f 115/140/108 120/149/108 116/141/108
f 116/141/109 121/150/109 117/143/109
f 117/143/110 122/151/110 118/145/110
f 119/148/111 38/152/111 123/153/111
f 119/148/112 124/154/112 120/149/112
f 120/149/113 125/155/113 121/150/113
f 121/150/114 126/156/114 122/151/114
f 123/153/115 38/157/115 127/158/115
f 123/153/116 128/159/116 124/154/116
f 124/154/117 129/160/117 125/155/117
f 125/155/118 130/161/118 126/156/118
f 127/158/119 132/162/119 128/159/119
f 128/159/120 133/163/120 129/160/120
f 129/160/121 134/164/121 130/161/121
f 127/158/122 38/165/122 131/166/122
f 131/166/123 38/167/123 135/168/123
f 131/166/124 136/169/124 132/162/124
f 132/162/125 137/170/125 133/163/125
f 133/163/126 138/171/126 134/164/126
f 136/169/127 141/172/127 137/170/127
f 137/170/128 142/173/128 138/171/128
f 74/87/1 106/123/1 138/171/1
f 135/168/129 38/174/129 139/175/129
f 135/168/130 140/176/130 136/169/130
f 139/175/131 38/177/131 143/15/131
f 139/175/132 144/19/132 140/176/132
f 140/176/133 17/21/133 141/172/133
f 141/172/134 145/23/134 142/173/134
f 143/15/8 18/17/8 19/18/8
f 144/19/9 19/18/9 20/20/9
f 17/21/10 20/20/10 21/22/10
f 18/17/12 22/25/12 23/26/12
f 19/18/13 23/26/13 24/27/13
f 20/20/14 24/27/14 25/28/14
f 22/25/15 26/33/15 27/29/15
f 23/26/135 27/29/135 28/30/135
f 24/27/17 28/30/17 29/31/17
f 26/33/20 30/35/20 31/36/20
f 27/29/21 31/36/21 32/37/21
f 28/30/22 32/37/22 33/3/22
f 30/35/23 34/42/23 35/38/23
f 31/36/24 35/38/24 36/39/24
f 32/37/25 36/39/25 37/40/25
f 34/42/28 39/44/28 40/45/28
f 35/38/136 40/45/136 41/46/136
f 36/39/30 41/46/30 42/47/30
f 40/45/31 44/52/31 45/48/31
f 41/46/32 45/48/32 46/49/32
f 39/44/34 43/51/34 44/52/34
f 43/51/36 47/54/36 48/55/36
f 44/52/37 48/55/37 49/56/37
f 45/48/38 49/56/38 50/57/38
f 48/55/39 52/62/39 53/58/39
f 49/56/40 53/58/40 54/59/40
f 47/54/42 51/61/42 52/62/42
f 51/61/44 55/64/44 56/65/44
f 52/62/45 56/65/45 57/66/45
f 53/58/46 57/66/46 58/67/46
f 57/66/47 61/72/47 62/68/47
f 55/64/49 59/70/49 60/71/49
f 56/65/137 60/71/137 61/72/137
f 59/70/52 63/74/52 64/75/52
f 60/71/53 64/75/53 65/76/53
f 61/72/54 65/76/54 66/77/54
f 63/74/56 67/79/56 68/80/56
f 64/75/57 68/80/57 69/81/57
f 65/76/58 69/81/58 70/82/58
f 67/79/60 71/84/60 72/85/60
f 68/80/138 72/85/138 73/86/138
f 69/81/62 73/86/62 74/87/62
f 71/84/64 75/89/64 76/90/64
f 72/85/65 76/90/65 77/91/65
f 73/86/66 77/91/66 78/92/66
f 75/89/67 79/97/67 80/93/67
f 76/90/68 80/93/68 81/94/68
f 77/91/69 81/94/69 82/95/69
f 79/97/72 83/99/72 84/100/72
f 80/93/73 84/100/73 85/101/73
f 81/94/74 85/101/74 86/102/74
f 83/99/75 87/107/75 88/103/75
f 84/100/76 88/103/76 89/104/76
f 85/101/77 89/104/77 90/105/77
f 87/107/80 91/109/80 92/110/80
f 88/103/81 92/110/81 93/111/81
f 89/104/82 93/111/82 94/112/82
f 92/110/83 96/117/83 97/113/83
f 93/111/84 97/113/84 98/114/84
f 91/109/86 95/116/86 96/117/86
f 95/116/88 99/119/88 100/120/88
f 96/117/89 100/120/89 101/121/89
f 97/113/90 101/121/90 102/122/90
f 101/121/91 105/127/91 106/123/91
f 99/119/93 103/125/93 104/126/93
f 100/120/139 104/126/139 105/127/139
f 103/125/96 107/129/96 108/130/96
f 104/126/97 108/130/97 109/131/97
f 105/127/98 109/131/98 110/132/98
f 109/131/99 113/137/99 114/133/99
f 107/129/101 111/135/101 112/136/101
f 108/130/102 112/136/102 113/137/102
f 111/138/104 115/140/104 116/141/104
f 112/142/105 116/141/105 117/143/105
f 113/144/106 117/143/106 118/145/106
f 115/140/108 119/148/108 120/149/108
f 116/141/109 120/149/109 121/150/109
f 117/143/110 121/150/110 122/151/110
f 119/148/112 123/153/112 124/154/112
f 120/149/113 124/154/113 125/155/113
f 121/150/114 125/155/114 126/156/114
f 123/153/116 127/158/116 128/159/116
f 124/154/117 128/159/117 129/160/117
f 125/155/118 129/160/118 130/161/118
f 127/158/119 131/166/119 132/162/119
f 128/159/120 132/162/120 133/163/120
f 129/160/121 133/163/121 134/164/121
f 131/166/124 135/168/124 136/169/124
f 132/162/140 136/169/140 137/170/140
f 133/163/126 137/170/126 138/171/126
f 136/169/127 140/176/127 141/172/127
f 137/170/128 141/172/128 142/173/128
f 138/171/1 142/173/1 145/23/1
f 145/23/1 21/22/1 25/28/1
f 25/28/1 29/31/1 33/3/1
f 33/3/1 37/40/1 25/28/1
f 37/40/1 42/47/1 25/28/1
f 42/47/1 46/49/1 50/57/1
f 50/57/1 54/59/1 58/67/1
f 58/67/1 62/68/1 74/87/1
f 62/68/1 66/77/1 74/87/1
f 66/77/1 70/82/1 74/87/1
f 74/87/1 78/92/1 82/95/1
f 82/95/1 86/102/1 90/105/1
f 90/105/1 94/112/1 106/123/1
f 94/112/1 98/114/1 106/123/1
f 98/114/1 102/122/1 106/123/1
f 106/123/1 110/132/1 114/146/1
f 114/146/1 118/145/1 106/123/1
f 118/145/1 122/151/1 106/123/1
f 122/151/1 126/156/1 130/161/1
f 130/161/1 134/164/1 122/151/1
f 134/164/1 138/171/1 122/151/1
f 138/171/1 145/23/1 25/28/1
f 42/47/1 50/57/1 74/87/1
f 50/57/1 58/67/1 74/87/1
f 74/87/1 82/95/1 106/123/1
f 82/95/1 90/105/1 106/123/1
f 138/171/1 25/28/1 42/47/1
f 106/123/1 122/151/1 138/171/1
f 138/171/1 42/47/1 74/87/1
f 135/168/130 139/175/130 140/176/130
f 139/175/132 143/15/132 144/19/132
f 140/176/133 144/19/133 17/21/133
f 141/172/134 17/21/134 145/23/134
